<?xml version="1.0" standalone="no"?>
<!DOCTYPE svg PUBLIC "-//W3C//DTD SVG 20010904//EN"
 "http://www.w3.org/TR/2001/REC-SVG-20010904/DTD/svg10.dtd">
<svg version="1.0" xmlns="http://www.w3.org/2000/svg"
 width="1024.000000pt" height="1024.000000pt" viewBox="0 0 1024.000000 1024.000000"
 preserveAspectRatio="xMidYMid meet">
<metadata>
Created by potrace 1.14, written by Peter Selinger 2001-2017
</metadata>
<g transform="translate(0.000000,1024.000000) scale(0.100000,-0.100000)"
fill="#000000" stroke="none">
<path d="M0 5120 l0 -5120 5120 0 5120 0 0 5120 0 5120 -5120 0 -5120 0 0
-5120z m5580 4575 c343 -40 611 -94 871 -176 791 -247 1467 -677 2012 -1279
77 -85 154 -173 171 -196 17 -23 63 -84 102 -136 40 -52 110 -153 157 -225
476 -732 727 -1574 727 -2442 0 -821 -201 -1575 -605 -2276 -279 -484 -709
-964 -1170 -1309 -693 -519 -1508 -823 -2400 -897 -181 -15 -645 -6 -825 16
-822 99 -1544 382 -2209 867 -321 235 -679 593 -929 930 -475 641 -767 1410
-847 2238 -20 196 -19 635 0 826 59 575 196 1061 441 1564 138 282 247 463
420 696 161 216 274 347 462 532 434 428 871 716 1471 967 92 38 399 140 516
170 270 70 610 125 891 145 177 12 580 4 744 -15z"/>
<path d="M4745 9214 c-679 -67 -1323 -297 -1870 -669 -819 -555 -1383 -1356
-1631 -2312 -38 -148 -85 -410 -106 -588 -17 -145 -17 -652 0 -810 42 -380
130 -743 260 -1072 58 -146 123 -283 135 -283 8 0 132 38 372 115 22 7 106 30
188 51 l147 39 0 46 c0 44 2 47 31 53 17 3 53 6 80 6 l49 0 0 1770 0 1770 -75
0 -75 0 0 270 0 270 860 0 860 0 0 -1985 c0 -1861 -1 -1985 -17 -1985 -9 0
-114 -9 -232 -21 -569 -54 -1088 -146 -1579 -280 -247 -68 -542 -160 -570
-178 -11 -6 -6 -24 23 -82 21 -41 39 -75 40 -77 2 -2 59 14 127 36 702 229
1474 359 2508 424 281 17 1606 18 1860 0 264 -18 608 -49 800 -72 499 -60
1191 -216 1574 -355 l92 -33 43 75 c23 41 41 77 38 79 -24 25 -485 168 -782
243 -324 82 -699 152 -1055 196 -116 14 -528 55 -557 55 -11 0 -13 373 -13
1980 l0 1980 860 0 860 0 0 -270 0 -270 -75 0 -75 0 0 -1760 c0 -968 0 -1763
0 -1767 0 -5 36 -9 79 -11 l80 -3 3 -51 3 -52 60 -13 c100 -22 300 -82 470
-139 88 -30 164 -54 170 -54 12 1 100 194 154 340 128 344 189 596 232 961 29
238 31 646 6 874 -85 761 -342 1411 -791 2003 -99 130 -274 328 -382 432 -327
313 -650 541 -1034 729 -462 227 -884 345 -1416 396 -192 18 -537 18 -729 -1z
m1435 -3267 c0 -1113 -2 -2026 -4 -2028 -4 -4 -175 4 -393 17 l-93 6 -2 321
-3 322 -542 3 -543 2 -2 -272 c-2 -150 -3 -298 -3 -328 l0 -55 -145 -6 c-80
-3 -200 -10 -267 -14 l-123 -8 0 2032 0 2031 1060 0 1060 0 0 -2023z"/>
<path d="M4730 6810 l0 -170 165 0 165 0 0 170 0 170 -165 0 -165 0 0 -170z"/>
<path d="M5180 6810 l0 -170 165 0 165 0 0 170 0 170 -165 0 -165 0 0 -170z"/>
<path d="M5593 5622 l-93 -3 -102 -134 c-57 -74 -106 -135 -111 -135 -4 0 -5
61 -1 135 l6 135 -81 0 -81 0 -2 -320 c-1 -176 -2 -330 -2 -342 -1 -22 3 -23
77 -26 57 -2 77 0 78 10 0 7 0 58 -1 113 -1 99 -1 101 29 129 l29 28 25 -39
c14 -21 54 -85 91 -141 l66 -102 95 0 c52 0 95 4 95 9 0 5 -21 37 -47 72 -95
130 -213 300 -213 308 0 7 150 194 228 284 8 9 13 18 11 20 -2 1 -46 1 -96 -1z"/>
<path d="M4608 5373 c-2 -137 -2 -292 0 -346 l4 -97 216 2 216 3 -1 70 -1 70
-136 3 -136 3 0 269 0 270 -79 0 -79 0 -4 -247z"/>
<path d="M2910 6770 l0 -210 158 0 159 0 6 202 c3 111 4 205 1 210 -3 4 -77 8
-165 8 l-159 0 0 -210z"/>
<path d="M3360 6770 l0 -210 165 0 165 0 0 210 0 210 -165 0 -165 0 0 -210z"/>
<path d="M6560 6770 l0 -210 160 0 160 0 0 210 0 210 -160 0 -160 0 0 -210z"/>
<path d="M7008 6962 c-3 -10 -5 -104 -4 -208 l1 -189 163 -3 162 -2 0 210 0
210 -159 0 c-145 0 -159 -2 -163 -18z"/>
<path d="M2910 6385 l0 -115 161 2 162 3 3 95 c2 52 1 103 -2 113 -5 15 -22
17 -165 17 l-159 0 0 -115z"/>
<path d="M3360 6385 l0 -115 163 2 162 3 3 90 c5 146 19 135 -168 135 l-160 0
0 -115z"/>
<path d="M6560 6385 l0 -115 160 0 160 0 0 115 0 115 -160 0 -160 0 0 -115z"/>
<path d="M7002 6388 l3 -113 163 -3 162 -2 0 115 0 115 -165 0 -166 0 3 -112z"/>
<path d="M2910 5770 l0 -210 161 2 160 3 0 178 c0 97 -1 191 -1 207 l0 30
-160 0 -160 0 0 -210z"/>
<path d="M3360 5770 l0 -210 163 2 162 3 0 205 0 205 -162 3 -163 2 0 -210z"/>
<path d="M6560 5770 l0 -210 160 0 160 0 0 210 0 210 -160 0 -160 0 0 -210z"/>
<path d="M7004 5773 l1 -208 163 -3 162 -2 0 210 0 210 -164 0 -163 0 1 -207z"/>
<path d="M2910 5390 l0 -110 160 0 160 0 0 110 0 110 -160 0 -160 0 0 -110z"/>
<path d="M3360 5390 l0 -110 163 2 162 3 0 105 0 105 -162 3 -163 2 0 -110z"/>
<path d="M6559 5468 c-2 -18 -3 -68 -1 -110 l4 -78 159 0 159 0 0 110 0 110
-159 0 -159 0 -3 -32z"/>
<path d="M7002 5393 l3 -108 163 -3 162 -2 0 110 0 110 -165 0 -166 0 3 -107z"/>
<path d="M2910 4805 l0 -205 160 0 160 0 0 205 0 205 -160 0 -160 0 0 -205z"/>
<path d="M3360 4805 l0 -205 163 2 162 3 -1 200 -1 200 -161 3 -162 2 0 -205z"/>
<path d="M6560 4805 l0 -205 160 0 160 0 0 205 0 205 -160 0 -160 0 0 -205z"/>
<path d="M7007 5003 c-9 -8 -9 -350 -1 -380 6 -23 9 -23 165 -23 l159 0 0 205
0 205 -158 0 c-87 0 -162 -3 -165 -7z"/>
<path d="M2910 4255 l0 -175 160 2 c88 2 160 6 160 11 0 4 0 81 0 172 l0 165
-160 0 -160 0 0 -175z"/>
<path d="M3360 4255 l0 -175 159 0 c132 0 160 3 165 15 3 8 3 87 -1 175 l-6
160 -159 0 -158 0 0 -175z"/>
<path d="M6560 4255 l0 -175 160 0 160 0 0 175 0 175 -160 0 -160 0 0 -175z"/>
<path d="M7000 4255 l0 -175 165 0 165 0 0 175 0 175 -165 0 -165 0 0 -175z"/>
<path d="M4735 3603 c-387 -6 -920 -39 -1225 -74 -391 -45 -867 -131 -1232
-223 -196 -49 -538 -152 -552 -166 -12 -12 80 -151 211 -317 10 -14 23 -9 92
36 157 101 342 190 560 272 145 54 204 71 194 56 -7 -12 -403 -603 -457 -681
-14 -21 -26 -44 -26 -50 1 -6 32 -32 70 -57 l69 -47 107 162 c59 88 109 163
111 165 1 2 53 -29 114 -70 62 -41 116 -77 122 -80 6 -4 2 -18 -10 -35 -12
-16 -59 -91 -106 -166 l-85 -137 75 -47 c59 -37 77 -44 83 -33 11 18 355 560
447 702 39 61 69 115 67 119 -10 16 -145 90 -152 84 -9 -9 -116 -176 -172
-269 -40 -66 -42 -68 -63 -53 -12 8 -64 43 -114 77 -51 35 -93 67 -93 71 0 10
181 279 207 310 13 15 11 19 -27 44 -22 15 -37 31 -33 35 10 9 264 65 358 78
257 37 1291 81 1920 81 542 0 1339 -31 1673 -65 353 -36 727 -145 1057 -308
107 -53 266 -145 327 -190 l30 -22 35 40 c44 51 197 271 201 289 7 33 -628
215 -1013 290 -476 93 -869 140 -1415 167 -204 10 -1052 18 -1355 12z"/>
<path d="M7119 3074 c-35 -25 -63 -52 -63 -59 1 -8 55 -88 120 -177 298 -411
437 -598 445 -598 4 0 57 36 116 80 59 44 149 111 200 148 50 37 92 70 92 75
1 4 -22 36 -49 72 l-51 64 -132 -99 c-72 -55 -134 -96 -138 -92 -3 4 -52 70
-109 147 -57 77 -157 211 -222 298 -66 87 -122 165 -125 172 -8 21 -12 20 -84
-31z"/>
<path d="M6703 2837 c-50 -25 -83 -48 -83 -57 0 -8 16 -98 35 -200 19 -102 58
-313 86 -470 28 -157 54 -288 58 -292 12 -14 161 55 161 74 0 9 -9 55 -21 103
-11 48 -19 91 -17 96 2 6 57 36 123 69 l120 59 45 -52 c25 -28 59 -67 76 -86
l31 -34 59 32 c32 17 70 40 82 50 l24 18 -129 134 c-127 133 -281 298 -462
497 -52 56 -97 102 -100 101 -3 0 -43 -19 -88 -42z m138 -224 c23 -32 80 -102
126 -155 46 -53 83 -99 83 -103 0 -3 -37 -24 -82 -46 l-83 -40 -7 28 c-85 335
-93 373 -84 373 2 0 23 -26 47 -57z"/>
<path d="M3582 2815 c-67 -19 -97 -34 -160 -84 -118 -94 -211 -276 -231 -452
-23 -208 56 -373 212 -445 54 -25 73 -29 152 -29 128 1 188 26 281 119 57 56
81 90 117 166 64 133 81 202 80 335 0 89 -4 121 -22 167 -63 163 -266 268
-429 223z m155 -180 c50 -21 72 -42 94 -90 38 -82 14 -237 -60 -381 -88 -173
-206 -233 -313 -160 -73 49 -100 136 -78 256 15 82 58 195 100 260 29 45 101
108 140 123 29 11 81 7 117 -8z"/>
<path d="M6315 2700 c-71 -21 -201 -55 -288 -76 l-159 -38 5 -31 c10 -62 39
-145 50 -145 7 0 54 12 106 26 51 14 97 22 101 17 4 -4 26 -73 48 -153 94
-330 179 -621 184 -626 5 -4 155 34 167 42 5 4 -13 68 -193 688 -14 48 -26 93
-26 100 0 6 46 22 101 36 56 13 103 30 106 37 8 20 -42 158 -58 159 -8 1 -72
-15 -144 -36z"/>
<path d="M4371 2599 c-113 -33 -194 -136 -207 -267 -14 -126 43 -218 212 -343
105 -77 125 -111 104 -174 -16 -48 -49 -68 -113 -68 -61 0 -136 34 -198 90
-22 20 -41 34 -43 32 -2 -2 -25 -38 -51 -79 l-48 -74 37 -32 c91 -79 249 -132
351 -119 158 21 253 129 263 297 4 69 2 84 -22 133 -27 54 -55 81 -214 205
-82 64 -107 116 -81 173 34 74 155 74 255 -2 l49 -37 47 74 c27 40 48 74 48
77 0 2 -26 22 -57 45 -96 68 -233 97 -332 69z"/>
<path d="M5653 2558 c-29 -5 -53 -14 -53 -20 0 -5 21 -143 46 -306 25 -164 58
-379 73 -480 16 -100 30 -184 32 -186 2 -3 43 1 89 7 75 11 85 15 83 32 -1 11
-11 76 -22 145 -11 69 -43 271 -71 450 -28 179 -54 335 -57 348 -6 25 -29 27
-120 10z"/>
<path d="M4897 2534 c-4 -4 -7 -232 -7 -506 l0 -498 90 0 90 0 0 169 0 168 98
5 c126 7 207 41 270 113 114 129 106 369 -15 476 -76 66 -107 74 -323 77 -107
2 -199 0 -203 -4z m361 -184 c48 -30 72 -75 72 -140 0 -65 -24 -110 -72 -140
-26 -15 -51 -20 -110 -20 l-78 0 0 160 0 160 78 0 c59 0 84 -5 110 -20z"/>
</g>
</svg>
